G75*
%MOIN*%
%OFA0B0*%
%FSLAX25Y25*%
%IPPOS*%
%LPD*%
%AMOC8*
5,1,8,0,0,1.08239X$1,22.5*
%
%ADD10R,0.03937X0.04331*%
%ADD11R,0.04331X0.03937*%
%ADD12R,0.09055X0.06299*%
%ADD13R,0.03150X0.04724*%
%ADD14R,0.04724X0.04724*%
%ADD15C,0.01500*%
D10*
X0097125Y0123154D03*
X0097125Y0129846D03*
X0105875Y0129846D03*
X0105875Y0123154D03*
D11*
X0114404Y0115250D03*
X0121096Y0115250D03*
X0129404Y0115250D03*
X0136096Y0115250D03*
X0088596Y0115250D03*
X0081904Y0115250D03*
X0073596Y0115250D03*
X0066904Y0115250D03*
D12*
X0063473Y0126500D03*
X0088277Y0126500D03*
X0113473Y0126500D03*
X0138277Y0126500D03*
D13*
X0105043Y0115250D03*
X0097957Y0115250D03*
D14*
X0098134Y0137750D03*
X0104866Y0137750D03*
X0113134Y0137750D03*
X0089866Y0137750D03*
D15*
X0074254Y0050533D02*
X0065754Y0050533D01*
X0074254Y0050533D02*
X0074254Y0047033D01*
X0065754Y0047033D01*
X0065754Y0050533D01*
X0065754Y0048532D02*
X0074254Y0048532D01*
X0074254Y0050031D02*
X0065754Y0050031D01*
X0065754Y0058407D02*
X0074254Y0058407D01*
X0074254Y0054907D01*
X0065754Y0054907D01*
X0065754Y0058407D01*
X0065754Y0056406D02*
X0074254Y0056406D01*
X0074254Y0057905D02*
X0065754Y0057905D01*
X0065754Y0066281D02*
X0074254Y0066281D01*
X0074254Y0062781D01*
X0065754Y0062781D01*
X0065754Y0066281D01*
X0065754Y0064280D02*
X0074254Y0064280D01*
X0074254Y0065779D02*
X0065754Y0065779D01*
X0065754Y0074156D02*
X0074254Y0074156D01*
X0074254Y0070656D01*
X0065754Y0070656D01*
X0065754Y0074156D01*
X0065754Y0072155D02*
X0074254Y0072155D01*
X0074254Y0073654D02*
X0065754Y0073654D01*
X0065754Y0082030D02*
X0074254Y0082030D01*
X0074254Y0078530D01*
X0065754Y0078530D01*
X0065754Y0082030D01*
X0065754Y0080029D02*
X0074254Y0080029D01*
X0074254Y0081528D02*
X0065754Y0081528D01*
X0065754Y0089904D02*
X0074254Y0089904D01*
X0074254Y0086404D01*
X0065754Y0086404D01*
X0065754Y0089904D01*
X0065754Y0087903D02*
X0074254Y0087903D01*
X0074254Y0089402D02*
X0065754Y0089402D01*
X0065754Y0097778D02*
X0074254Y0097778D01*
X0074254Y0094278D01*
X0065754Y0094278D01*
X0065754Y0097778D01*
X0065754Y0095777D02*
X0074254Y0095777D01*
X0074254Y0097276D02*
X0065754Y0097276D01*
X0065754Y0105652D02*
X0074254Y0105652D01*
X0074254Y0102152D01*
X0065754Y0102152D01*
X0065754Y0105652D01*
X0065754Y0103651D02*
X0074254Y0103651D01*
X0074254Y0105150D02*
X0065754Y0105150D01*
X0128746Y0105652D02*
X0137246Y0105652D01*
X0137246Y0102152D01*
X0128746Y0102152D01*
X0128746Y0105652D01*
X0128746Y0103651D02*
X0137246Y0103651D01*
X0137246Y0105150D02*
X0128746Y0105150D01*
X0128746Y0097778D02*
X0137246Y0097778D01*
X0137246Y0094278D01*
X0128746Y0094278D01*
X0128746Y0097778D01*
X0128746Y0095777D02*
X0137246Y0095777D01*
X0137246Y0097276D02*
X0128746Y0097276D01*
X0128746Y0089904D02*
X0137246Y0089904D01*
X0137246Y0086404D01*
X0128746Y0086404D01*
X0128746Y0089904D01*
X0128746Y0087903D02*
X0137246Y0087903D01*
X0137246Y0089402D02*
X0128746Y0089402D01*
X0128746Y0082030D02*
X0137246Y0082030D01*
X0137246Y0078530D01*
X0128746Y0078530D01*
X0128746Y0082030D01*
X0128746Y0080029D02*
X0137246Y0080029D01*
X0137246Y0081528D02*
X0128746Y0081528D01*
X0128746Y0074156D02*
X0137246Y0074156D01*
X0137246Y0070656D01*
X0128746Y0070656D01*
X0128746Y0074156D01*
X0128746Y0072155D02*
X0137246Y0072155D01*
X0137246Y0073654D02*
X0128746Y0073654D01*
X0128746Y0066281D02*
X0137246Y0066281D01*
X0137246Y0062781D01*
X0128746Y0062781D01*
X0128746Y0066281D01*
X0128746Y0064280D02*
X0137246Y0064280D01*
X0137246Y0065779D02*
X0128746Y0065779D01*
X0128746Y0058407D02*
X0137246Y0058407D01*
X0137246Y0054907D01*
X0128746Y0054907D01*
X0128746Y0058407D01*
X0128746Y0056406D02*
X0137246Y0056406D01*
X0137246Y0057905D02*
X0128746Y0057905D01*
X0128746Y0050533D02*
X0137246Y0050533D01*
X0137246Y0047033D01*
X0128746Y0047033D01*
X0128746Y0050533D01*
X0128746Y0048532D02*
X0137246Y0048532D01*
X0137246Y0050031D02*
X0128746Y0050031D01*
M02*
