G75*
%MOIN*%
%OFA0B0*%
%FSLAX25Y25*%
%IPPOS*%
%LPD*%
%AMOC8*
5,1,8,0,0,1.08239X$1,22.5*
%
%ADD10R,0.07400X0.07400*%
%ADD11C,0.07400*%
%ADD12C,0.01000*%
%ADD13C,0.03562*%
D10*
X0086500Y0104000D03*
X0116500Y0104000D03*
D11*
X0116500Y0094000D03*
X0116500Y0084000D03*
X0116500Y0074000D03*
X0116500Y0064000D03*
X0116500Y0054000D03*
X0116500Y0044000D03*
X0116500Y0034000D03*
X0086500Y0034000D03*
X0086500Y0044000D03*
X0086500Y0054000D03*
X0086500Y0064000D03*
X0086500Y0074000D03*
X0086500Y0084000D03*
X0086500Y0094000D03*
D12*
X0059049Y0020289D02*
X0059097Y0019802D01*
X0059471Y0018900D01*
X0060160Y0018211D01*
X0061061Y0017837D01*
X0061549Y0017789D01*
X0141500Y0017789D01*
X0141988Y0017837D01*
X0142889Y0018211D01*
X0143579Y0018900D01*
X0143952Y0019802D01*
X0144000Y0020289D01*
X0144000Y0137253D01*
X0144000Y0137750D01*
X0143952Y0138238D01*
X0143579Y0139139D01*
X0142889Y0139829D01*
X0141988Y0140202D01*
X0141500Y0140250D01*
X0061549Y0140250D01*
X0061061Y0140202D01*
X0060160Y0139829D01*
X0059471Y0139139D01*
X0059097Y0138238D01*
X0059049Y0137750D01*
X0059049Y0020289D01*
X0059049Y0020487D02*
X0144000Y0020487D01*
X0144000Y0021485D02*
X0059049Y0021485D01*
X0059049Y0022484D02*
X0144000Y0022484D01*
X0144000Y0023482D02*
X0059049Y0023482D01*
X0059049Y0024481D02*
X0144000Y0024481D01*
X0144000Y0025479D02*
X0059049Y0025479D01*
X0059049Y0026478D02*
X0144000Y0026478D01*
X0144000Y0027476D02*
X0059049Y0027476D01*
X0059049Y0028475D02*
X0144000Y0028475D01*
X0144000Y0029473D02*
X0118376Y0029473D01*
X0119276Y0029846D02*
X0117475Y0029100D01*
X0115525Y0029100D01*
X0113724Y0029846D01*
X0112346Y0031224D01*
X0111600Y0033025D01*
X0111600Y0034975D01*
X0112346Y0036776D01*
X0113724Y0038154D01*
X0115525Y0038900D01*
X0117475Y0038900D01*
X0119276Y0038154D01*
X0120654Y0036776D01*
X0121400Y0034975D01*
X0121400Y0033025D01*
X0120654Y0031224D01*
X0119276Y0029846D01*
X0119901Y0030472D02*
X0144000Y0030472D01*
X0144000Y0031470D02*
X0120756Y0031470D01*
X0121169Y0032469D02*
X0144000Y0032469D01*
X0144000Y0033467D02*
X0121400Y0033467D01*
X0121400Y0034466D02*
X0144000Y0034466D01*
X0144000Y0035464D02*
X0121197Y0035464D01*
X0120784Y0036463D02*
X0144000Y0036463D01*
X0144000Y0037461D02*
X0119968Y0037461D01*
X0118537Y0038460D02*
X0144000Y0038460D01*
X0144000Y0039458D02*
X0118340Y0039458D01*
X0117475Y0039100D02*
X0119276Y0039846D01*
X0120654Y0041224D01*
X0121400Y0043025D01*
X0121400Y0044975D01*
X0120654Y0046776D01*
X0119276Y0048154D01*
X0117475Y0048900D01*
X0115525Y0048900D01*
X0113724Y0048154D01*
X0112346Y0046776D01*
X0111600Y0044975D01*
X0111600Y0043025D01*
X0112346Y0041224D01*
X0113724Y0039846D01*
X0115525Y0039100D01*
X0117475Y0039100D01*
X0119886Y0040457D02*
X0144000Y0040457D01*
X0144000Y0041455D02*
X0120750Y0041455D01*
X0121163Y0042454D02*
X0144000Y0042454D01*
X0144000Y0043452D02*
X0121400Y0043452D01*
X0121400Y0044451D02*
X0144000Y0044451D01*
X0144000Y0045449D02*
X0121203Y0045449D01*
X0120790Y0046448D02*
X0144000Y0046448D01*
X0144000Y0047446D02*
X0119983Y0047446D01*
X0118573Y0048445D02*
X0144000Y0048445D01*
X0144000Y0049443D02*
X0118304Y0049443D01*
X0117475Y0049100D02*
X0119276Y0049846D01*
X0120654Y0051224D01*
X0121400Y0053025D01*
X0121400Y0054975D01*
X0120654Y0056776D01*
X0119276Y0058154D01*
X0117475Y0058900D01*
X0115525Y0058900D01*
X0113724Y0058154D01*
X0112346Y0056776D01*
X0111600Y0054975D01*
X0111600Y0053025D01*
X0112346Y0051224D01*
X0113724Y0049846D01*
X0115525Y0049100D01*
X0117475Y0049100D01*
X0119872Y0050442D02*
X0144000Y0050442D01*
X0144000Y0051440D02*
X0120744Y0051440D01*
X0121157Y0052439D02*
X0144000Y0052439D01*
X0144000Y0053437D02*
X0121400Y0053437D01*
X0121400Y0054436D02*
X0144000Y0054436D01*
X0144000Y0055434D02*
X0121210Y0055434D01*
X0120796Y0056433D02*
X0144000Y0056433D01*
X0144000Y0057432D02*
X0119998Y0057432D01*
X0118609Y0058430D02*
X0144000Y0058430D01*
X0144000Y0059429D02*
X0118268Y0059429D01*
X0117475Y0059100D02*
X0119276Y0059846D01*
X0120654Y0061224D01*
X0121400Y0063025D01*
X0121400Y0064975D01*
X0120654Y0066776D01*
X0119276Y0068154D01*
X0117475Y0068900D01*
X0115525Y0068900D01*
X0113724Y0068154D01*
X0112346Y0066776D01*
X0111600Y0064975D01*
X0111600Y0063025D01*
X0112346Y0061224D01*
X0113724Y0059846D01*
X0115525Y0059100D01*
X0117475Y0059100D01*
X0119857Y0060427D02*
X0144000Y0060427D01*
X0144000Y0061426D02*
X0120737Y0061426D01*
X0121151Y0062424D02*
X0144000Y0062424D01*
X0144000Y0063423D02*
X0121400Y0063423D01*
X0121400Y0064421D02*
X0144000Y0064421D01*
X0144000Y0065420D02*
X0121216Y0065420D01*
X0120802Y0066418D02*
X0144000Y0066418D01*
X0144000Y0067417D02*
X0120013Y0067417D01*
X0118645Y0068415D02*
X0144000Y0068415D01*
X0144000Y0069414D02*
X0118232Y0069414D01*
X0117475Y0069100D02*
X0119276Y0069846D01*
X0120654Y0071224D01*
X0121400Y0073025D01*
X0121400Y0074975D01*
X0120654Y0076776D01*
X0119276Y0078154D01*
X0117475Y0078900D01*
X0115525Y0078900D01*
X0113724Y0078154D01*
X0112346Y0076776D01*
X0111600Y0074975D01*
X0111600Y0073025D01*
X0112346Y0071224D01*
X0113724Y0069846D01*
X0115525Y0069100D01*
X0117475Y0069100D01*
X0119842Y0070412D02*
X0144000Y0070412D01*
X0144000Y0071411D02*
X0120731Y0071411D01*
X0121145Y0072409D02*
X0144000Y0072409D01*
X0144000Y0073408D02*
X0121400Y0073408D01*
X0121400Y0074406D02*
X0144000Y0074406D01*
X0144000Y0075405D02*
X0121222Y0075405D01*
X0120808Y0076403D02*
X0144000Y0076403D01*
X0144000Y0077402D02*
X0120028Y0077402D01*
X0118681Y0078400D02*
X0144000Y0078400D01*
X0144000Y0079399D02*
X0118196Y0079399D01*
X0117475Y0079100D02*
X0119276Y0079846D01*
X0120654Y0081224D01*
X0121400Y0083025D01*
X0121400Y0084975D01*
X0120654Y0086776D01*
X0119276Y0088154D01*
X0117475Y0088900D01*
X0115525Y0088900D01*
X0113724Y0088154D01*
X0112346Y0086776D01*
X0111600Y0084975D01*
X0111600Y0083025D01*
X0112346Y0081224D01*
X0113724Y0079846D01*
X0115525Y0079100D01*
X0117475Y0079100D01*
X0119827Y0080397D02*
X0144000Y0080397D01*
X0144000Y0081396D02*
X0120725Y0081396D01*
X0121139Y0082394D02*
X0144000Y0082394D01*
X0144000Y0083393D02*
X0121400Y0083393D01*
X0121400Y0084391D02*
X0144000Y0084391D01*
X0144000Y0085390D02*
X0121228Y0085390D01*
X0120814Y0086388D02*
X0144000Y0086388D01*
X0144000Y0087387D02*
X0120043Y0087387D01*
X0118717Y0088385D02*
X0144000Y0088385D01*
X0144000Y0089384D02*
X0118160Y0089384D01*
X0117475Y0089100D02*
X0119276Y0089846D01*
X0120654Y0091224D01*
X0121400Y0093025D01*
X0121400Y0094975D01*
X0120654Y0096776D01*
X0119276Y0098154D01*
X0117475Y0098900D01*
X0115525Y0098900D01*
X0113724Y0098154D01*
X0112346Y0096776D01*
X0111600Y0094975D01*
X0111600Y0093025D01*
X0112346Y0091224D01*
X0113724Y0089846D01*
X0115525Y0089100D01*
X0117475Y0089100D01*
X0114840Y0089384D02*
X0088160Y0089384D01*
X0087475Y0089100D02*
X0089276Y0089846D01*
X0090654Y0091224D01*
X0091400Y0093025D01*
X0091400Y0094975D01*
X0090654Y0096776D01*
X0089276Y0098154D01*
X0087716Y0098800D01*
X0090397Y0098800D01*
X0090779Y0098902D01*
X0091121Y0099100D01*
X0091400Y0099379D01*
X0091598Y0099721D01*
X0091700Y0100103D01*
X0091700Y0103500D01*
X0087000Y0103500D01*
X0087000Y0104500D01*
X0091700Y0104500D01*
X0091700Y0107897D01*
X0091598Y0108279D01*
X0091400Y0108621D01*
X0091121Y0108900D01*
X0090779Y0109098D01*
X0090397Y0109200D01*
X0087000Y0109200D01*
X0087000Y0104500D01*
X0086000Y0104500D01*
X0086000Y0109200D01*
X0082603Y0109200D01*
X0082221Y0109098D01*
X0081879Y0108900D01*
X0081600Y0108621D01*
X0081402Y0108279D01*
X0081300Y0107897D01*
X0081300Y0104500D01*
X0086000Y0104500D01*
X0086000Y0103500D01*
X0081300Y0103500D01*
X0081300Y0100103D01*
X0081402Y0099721D01*
X0081600Y0099379D01*
X0081879Y0099100D01*
X0082221Y0098902D01*
X0082603Y0098800D01*
X0085284Y0098800D01*
X0083724Y0098154D01*
X0082346Y0096776D01*
X0081600Y0094975D01*
X0081600Y0093025D01*
X0082346Y0091224D01*
X0083724Y0089846D01*
X0085525Y0089100D01*
X0087475Y0089100D01*
X0087475Y0088900D02*
X0085525Y0088900D01*
X0083724Y0088154D01*
X0082346Y0086776D01*
X0081600Y0084975D01*
X0081600Y0083025D01*
X0082346Y0081224D01*
X0083724Y0079846D01*
X0085525Y0079100D01*
X0087475Y0079100D01*
X0089276Y0079846D01*
X0090654Y0081224D01*
X0091400Y0083025D01*
X0091400Y0084975D01*
X0090654Y0086776D01*
X0089276Y0088154D01*
X0087475Y0088900D01*
X0088717Y0088385D02*
X0114283Y0088385D01*
X0112957Y0087387D02*
X0090043Y0087387D01*
X0090814Y0086388D02*
X0112186Y0086388D01*
X0111772Y0085390D02*
X0091228Y0085390D01*
X0091400Y0084391D02*
X0111600Y0084391D01*
X0111600Y0083393D02*
X0091400Y0083393D01*
X0091139Y0082394D02*
X0111861Y0082394D01*
X0112275Y0081396D02*
X0090725Y0081396D01*
X0089827Y0080397D02*
X0113173Y0080397D01*
X0114804Y0079399D02*
X0088196Y0079399D01*
X0087475Y0078900D02*
X0085525Y0078900D01*
X0083724Y0078154D01*
X0082346Y0076776D01*
X0081600Y0074975D01*
X0081600Y0073025D01*
X0082346Y0071224D01*
X0083724Y0069846D01*
X0085525Y0069100D01*
X0087475Y0069100D01*
X0089276Y0069846D01*
X0090654Y0071224D01*
X0091400Y0073025D01*
X0091400Y0074975D01*
X0090654Y0076776D01*
X0089276Y0078154D01*
X0087475Y0078900D01*
X0088681Y0078400D02*
X0114319Y0078400D01*
X0112972Y0077402D02*
X0090028Y0077402D01*
X0090808Y0076403D02*
X0112192Y0076403D01*
X0111778Y0075405D02*
X0091222Y0075405D01*
X0091400Y0074406D02*
X0111600Y0074406D01*
X0111600Y0073408D02*
X0091400Y0073408D01*
X0091145Y0072409D02*
X0111855Y0072409D01*
X0112269Y0071411D02*
X0090731Y0071411D01*
X0089842Y0070412D02*
X0113158Y0070412D01*
X0114768Y0069414D02*
X0088232Y0069414D01*
X0087475Y0068900D02*
X0085525Y0068900D01*
X0083724Y0068154D01*
X0082346Y0066776D01*
X0081600Y0064975D01*
X0081600Y0063025D01*
X0082346Y0061224D01*
X0083724Y0059846D01*
X0085525Y0059100D01*
X0087475Y0059100D01*
X0089276Y0059846D01*
X0090654Y0061224D01*
X0091400Y0063025D01*
X0091400Y0064975D01*
X0090654Y0066776D01*
X0089276Y0068154D01*
X0087475Y0068900D01*
X0088645Y0068415D02*
X0114355Y0068415D01*
X0112987Y0067417D02*
X0090013Y0067417D01*
X0090802Y0066418D02*
X0112198Y0066418D01*
X0111784Y0065420D02*
X0091216Y0065420D01*
X0091400Y0064421D02*
X0111600Y0064421D01*
X0111600Y0063423D02*
X0091400Y0063423D01*
X0091151Y0062424D02*
X0111849Y0062424D01*
X0112263Y0061426D02*
X0090737Y0061426D01*
X0089857Y0060427D02*
X0113143Y0060427D01*
X0114732Y0059429D02*
X0088268Y0059429D01*
X0087475Y0058900D02*
X0085525Y0058900D01*
X0083724Y0058154D01*
X0082346Y0056776D01*
X0081600Y0054975D01*
X0081600Y0053025D01*
X0082346Y0051224D01*
X0083724Y0049846D01*
X0085525Y0049100D01*
X0087475Y0049100D01*
X0089276Y0049846D01*
X0090654Y0051224D01*
X0091400Y0053025D01*
X0091400Y0054975D01*
X0090654Y0056776D01*
X0089276Y0058154D01*
X0087475Y0058900D01*
X0088609Y0058430D02*
X0114391Y0058430D01*
X0113002Y0057432D02*
X0089998Y0057432D01*
X0090796Y0056433D02*
X0112204Y0056433D01*
X0111790Y0055434D02*
X0091210Y0055434D01*
X0091400Y0054436D02*
X0111600Y0054436D01*
X0111600Y0053437D02*
X0091400Y0053437D01*
X0091157Y0052439D02*
X0111843Y0052439D01*
X0112256Y0051440D02*
X0090744Y0051440D01*
X0089872Y0050442D02*
X0113128Y0050442D01*
X0114696Y0049443D02*
X0088304Y0049443D01*
X0087475Y0048900D02*
X0085525Y0048900D01*
X0083724Y0048154D01*
X0082346Y0046776D01*
X0081600Y0044975D01*
X0081600Y0043025D01*
X0082346Y0041224D01*
X0083724Y0039846D01*
X0085525Y0039100D01*
X0087475Y0039100D01*
X0089276Y0039846D01*
X0090654Y0041224D01*
X0091400Y0043025D01*
X0091400Y0044975D01*
X0090654Y0046776D01*
X0089276Y0048154D01*
X0087475Y0048900D01*
X0088573Y0048445D02*
X0114427Y0048445D01*
X0113017Y0047446D02*
X0089983Y0047446D01*
X0090790Y0046448D02*
X0112210Y0046448D01*
X0111797Y0045449D02*
X0091203Y0045449D01*
X0091400Y0044451D02*
X0111600Y0044451D01*
X0111600Y0043452D02*
X0091400Y0043452D01*
X0091163Y0042454D02*
X0111837Y0042454D01*
X0112250Y0041455D02*
X0090750Y0041455D01*
X0089886Y0040457D02*
X0113114Y0040457D01*
X0114660Y0039458D02*
X0088340Y0039458D01*
X0088537Y0038460D02*
X0114463Y0038460D01*
X0113032Y0037461D02*
X0089968Y0037461D01*
X0090654Y0036776D02*
X0089276Y0038154D01*
X0087475Y0038900D01*
X0085525Y0038900D01*
X0083724Y0038154D01*
X0082346Y0036776D01*
X0081600Y0034975D01*
X0081600Y0033025D01*
X0082346Y0031224D01*
X0083724Y0029846D01*
X0085525Y0029100D01*
X0087475Y0029100D01*
X0089276Y0029846D01*
X0090654Y0031224D01*
X0091400Y0033025D01*
X0091400Y0034975D01*
X0090654Y0036776D01*
X0090784Y0036463D02*
X0112216Y0036463D01*
X0111803Y0035464D02*
X0091197Y0035464D01*
X0091400Y0034466D02*
X0111600Y0034466D01*
X0111600Y0033467D02*
X0091400Y0033467D01*
X0091169Y0032469D02*
X0111831Y0032469D01*
X0112244Y0031470D02*
X0090756Y0031470D01*
X0089901Y0030472D02*
X0113099Y0030472D01*
X0114624Y0029473D02*
X0088376Y0029473D01*
X0084624Y0029473D02*
X0059049Y0029473D01*
X0059049Y0030472D02*
X0083099Y0030472D01*
X0082244Y0031470D02*
X0059049Y0031470D01*
X0059049Y0032469D02*
X0081831Y0032469D01*
X0081600Y0033467D02*
X0059049Y0033467D01*
X0059049Y0034466D02*
X0081600Y0034466D01*
X0081803Y0035464D02*
X0059049Y0035464D01*
X0059049Y0036463D02*
X0082216Y0036463D01*
X0083032Y0037461D02*
X0059049Y0037461D01*
X0059049Y0038460D02*
X0084463Y0038460D01*
X0084660Y0039458D02*
X0059049Y0039458D01*
X0059049Y0040457D02*
X0083114Y0040457D01*
X0082250Y0041455D02*
X0059049Y0041455D01*
X0059049Y0042454D02*
X0081837Y0042454D01*
X0081600Y0043452D02*
X0059049Y0043452D01*
X0059049Y0044451D02*
X0081600Y0044451D01*
X0081797Y0045449D02*
X0059049Y0045449D01*
X0059049Y0046448D02*
X0082210Y0046448D01*
X0083017Y0047446D02*
X0059049Y0047446D01*
X0059049Y0048445D02*
X0084427Y0048445D01*
X0084696Y0049443D02*
X0059049Y0049443D01*
X0059049Y0050442D02*
X0083128Y0050442D01*
X0082256Y0051440D02*
X0059049Y0051440D01*
X0059049Y0052439D02*
X0081843Y0052439D01*
X0081600Y0053437D02*
X0059049Y0053437D01*
X0059049Y0054436D02*
X0081600Y0054436D01*
X0081790Y0055434D02*
X0059049Y0055434D01*
X0059049Y0056433D02*
X0082204Y0056433D01*
X0083002Y0057432D02*
X0059049Y0057432D01*
X0059049Y0058430D02*
X0084391Y0058430D01*
X0084732Y0059429D02*
X0059049Y0059429D01*
X0059049Y0060427D02*
X0083143Y0060427D01*
X0082263Y0061426D02*
X0059049Y0061426D01*
X0059049Y0062424D02*
X0081849Y0062424D01*
X0081600Y0063423D02*
X0059049Y0063423D01*
X0059049Y0064421D02*
X0081600Y0064421D01*
X0081784Y0065420D02*
X0059049Y0065420D01*
X0059049Y0066418D02*
X0082198Y0066418D01*
X0082987Y0067417D02*
X0059049Y0067417D01*
X0059049Y0068415D02*
X0084355Y0068415D01*
X0084768Y0069414D02*
X0059049Y0069414D01*
X0059049Y0070412D02*
X0083158Y0070412D01*
X0082269Y0071411D02*
X0059049Y0071411D01*
X0059049Y0072409D02*
X0081855Y0072409D01*
X0081600Y0073408D02*
X0059049Y0073408D01*
X0059049Y0074406D02*
X0081600Y0074406D01*
X0081778Y0075405D02*
X0059049Y0075405D01*
X0059049Y0076403D02*
X0082192Y0076403D01*
X0082972Y0077402D02*
X0059049Y0077402D01*
X0059049Y0078400D02*
X0084319Y0078400D01*
X0084804Y0079399D02*
X0059049Y0079399D01*
X0059049Y0080397D02*
X0083173Y0080397D01*
X0082275Y0081396D02*
X0059049Y0081396D01*
X0059049Y0082394D02*
X0081861Y0082394D01*
X0081600Y0083393D02*
X0059049Y0083393D01*
X0059049Y0084391D02*
X0081600Y0084391D01*
X0081772Y0085390D02*
X0059049Y0085390D01*
X0059049Y0086388D02*
X0082186Y0086388D01*
X0082957Y0087387D02*
X0059049Y0087387D01*
X0059049Y0088385D02*
X0084283Y0088385D01*
X0084840Y0089384D02*
X0059049Y0089384D01*
X0059049Y0090382D02*
X0083188Y0090382D01*
X0082281Y0091381D02*
X0059049Y0091381D01*
X0059049Y0092379D02*
X0081868Y0092379D01*
X0081600Y0093378D02*
X0059049Y0093378D01*
X0059049Y0094376D02*
X0081600Y0094376D01*
X0081766Y0095375D02*
X0059049Y0095375D01*
X0059049Y0096373D02*
X0082179Y0096373D01*
X0082942Y0097372D02*
X0059049Y0097372D01*
X0059049Y0098370D02*
X0084247Y0098370D01*
X0081610Y0099369D02*
X0059049Y0099369D01*
X0059049Y0100368D02*
X0081300Y0100368D01*
X0081300Y0101366D02*
X0059049Y0101366D01*
X0059049Y0102365D02*
X0081300Y0102365D01*
X0081300Y0103363D02*
X0059049Y0103363D01*
X0059049Y0104362D02*
X0086000Y0104362D01*
X0086500Y0104000D02*
X0097750Y0104000D01*
X0091700Y0103363D02*
X0111600Y0103363D01*
X0111600Y0102365D02*
X0091700Y0102365D01*
X0091700Y0101366D02*
X0111600Y0101366D01*
X0111600Y0100368D02*
X0091700Y0100368D01*
X0091390Y0099369D02*
X0112034Y0099369D01*
X0112303Y0099100D02*
X0120697Y0099100D01*
X0121400Y0099803D01*
X0121400Y0108197D01*
X0120697Y0108900D01*
X0112303Y0108900D01*
X0111600Y0108197D01*
X0111600Y0099803D01*
X0112303Y0099100D01*
X0112942Y0097372D02*
X0090058Y0097372D01*
X0090821Y0096373D02*
X0112179Y0096373D01*
X0111766Y0095375D02*
X0091234Y0095375D01*
X0091400Y0094376D02*
X0111600Y0094376D01*
X0111600Y0093378D02*
X0091400Y0093378D01*
X0091132Y0092379D02*
X0111868Y0092379D01*
X0112281Y0091381D02*
X0090719Y0091381D01*
X0089812Y0090382D02*
X0113188Y0090382D01*
X0119812Y0090382D02*
X0144000Y0090382D01*
X0144000Y0091381D02*
X0120719Y0091381D01*
X0121132Y0092379D02*
X0144000Y0092379D01*
X0144000Y0093378D02*
X0121400Y0093378D01*
X0121400Y0094376D02*
X0144000Y0094376D01*
X0144000Y0095375D02*
X0121234Y0095375D01*
X0120821Y0096373D02*
X0144000Y0096373D01*
X0144000Y0097372D02*
X0120058Y0097372D01*
X0118753Y0098370D02*
X0144000Y0098370D01*
X0144000Y0099369D02*
X0120966Y0099369D01*
X0121400Y0100368D02*
X0144000Y0100368D01*
X0144000Y0101366D02*
X0121400Y0101366D01*
X0121400Y0102365D02*
X0144000Y0102365D01*
X0144000Y0103363D02*
X0121400Y0103363D01*
X0121400Y0104362D02*
X0144000Y0104362D01*
X0144000Y0105360D02*
X0121400Y0105360D01*
X0121400Y0106359D02*
X0144000Y0106359D01*
X0144000Y0107357D02*
X0121400Y0107357D01*
X0121241Y0108356D02*
X0144000Y0108356D01*
X0144000Y0109354D02*
X0059049Y0109354D01*
X0059049Y0108356D02*
X0081446Y0108356D01*
X0081300Y0107357D02*
X0059049Y0107357D01*
X0059049Y0106359D02*
X0081300Y0106359D01*
X0081300Y0105360D02*
X0059049Y0105360D01*
X0059049Y0110353D02*
X0144000Y0110353D01*
X0144000Y0111351D02*
X0059049Y0111351D01*
X0059049Y0112350D02*
X0144000Y0112350D01*
X0144000Y0113348D02*
X0059049Y0113348D01*
X0059049Y0114347D02*
X0144000Y0114347D01*
X0144000Y0115345D02*
X0059049Y0115345D01*
X0059049Y0116344D02*
X0144000Y0116344D01*
X0144000Y0117342D02*
X0059049Y0117342D01*
X0059049Y0118341D02*
X0144000Y0118341D01*
X0144000Y0119339D02*
X0059049Y0119339D01*
X0059049Y0120338D02*
X0144000Y0120338D01*
X0144000Y0121336D02*
X0059049Y0121336D01*
X0059049Y0122335D02*
X0144000Y0122335D01*
X0144000Y0123333D02*
X0059049Y0123333D01*
X0059049Y0124332D02*
X0144000Y0124332D01*
X0144000Y0125330D02*
X0059049Y0125330D01*
X0059049Y0126329D02*
X0144000Y0126329D01*
X0144000Y0127327D02*
X0059049Y0127327D01*
X0059049Y0128326D02*
X0144000Y0128326D01*
X0144000Y0129324D02*
X0059049Y0129324D01*
X0059049Y0130323D02*
X0144000Y0130323D01*
X0144000Y0131321D02*
X0059049Y0131321D01*
X0059049Y0132320D02*
X0144000Y0132320D01*
X0144000Y0133318D02*
X0059049Y0133318D01*
X0059049Y0134317D02*
X0144000Y0134317D01*
X0144000Y0135315D02*
X0059049Y0135315D01*
X0059049Y0136314D02*
X0144000Y0136314D01*
X0144000Y0137312D02*
X0059049Y0137312D01*
X0059128Y0138311D02*
X0143922Y0138311D01*
X0143408Y0139309D02*
X0059641Y0139309D01*
X0086000Y0108356D02*
X0087000Y0108356D01*
X0087000Y0107357D02*
X0086000Y0107357D01*
X0086000Y0106359D02*
X0087000Y0106359D01*
X0087000Y0105360D02*
X0086000Y0105360D01*
X0087000Y0104362D02*
X0111600Y0104362D01*
X0111600Y0105360D02*
X0091700Y0105360D01*
X0091700Y0106359D02*
X0111600Y0106359D01*
X0111600Y0107357D02*
X0091700Y0107357D01*
X0091554Y0108356D02*
X0111759Y0108356D01*
X0114247Y0098370D02*
X0088753Y0098370D01*
X0059227Y0019488D02*
X0143822Y0019488D01*
X0143168Y0018490D02*
X0059881Y0018490D01*
D13*
X0097750Y0104000D03*
M02*
